#Comment line ignore any data following # character 
#Hierarchical Translation and Rotation (.htr) file 
[Header]	
#Header keywords are followed by a single value 
FileType HTR		#Single word string
DataType HTRS		#Translation followed by rotation and scale data
FileVersion 1		#integer
NumSegments 84		#integer
NumFrames 2		#integer
DataFrameRate 30		#integer, data frame rate in this file
EulerRotationOrder ZYX
CalibrationUnits mm
RotationUnits Degrees
GlobalAxisofGravity Y
BoneLengthAxis Y
ScaleFactor 1.00
[SegmentNames&Hierarchy]
#CHILD	PARENT
MASTER GLOBAL
root MASTER
chest root
L_mid_tent01 root
R_mid_tent01 root
spine01 root
Bip01_Neck chest
L_humerus chest
R_humerus chest
weapon_bone chest
Bip01_Head Bip01_Neck
eye_left_bone Bip01_Head
eye_right_bone Bip01_Head
L_forearm L_humerus
L_front_hand L_forearm
L_weapon_bone L_forearm
L_front_hand01_01 L_front_hand
L_front_hand02_01 L_front_hand
L_front_hand03_01 L_front_hand
L_front_hand01_02 L_front_hand01_01
L_front_hand02_02 L_front_hand02_01
L_front_hand03_02 L_front_hand03_01
R_forearm R_humerus
R_front_hand R_forearm
R_weapon_bone R_forearm
R_front_hand01_01 R_front_hand
R_front_hand02_01 R_front_hand
R_front_hand03_01 R_front_hand
R_front_hand01_02 R_front_hand01_01
R_front_hand02_02 R_front_hand02_01
R_front_hand03_02 R_front_hand03_01
null_rope01_connect L_mid_tent01
Rope1_Seg01 null_rope01_connect
Rope1_Seg02 Rope1_Seg01
Rope1_Seg03 Rope1_Seg02
Rope1_Seg04 Rope1_Seg03
Rope1_Seg05 Rope1_Seg04
Rope1_Seg06 Rope1_Seg05
Rope1_Seg07 Rope1_Seg06
Rope1_Seg09 Rope1_Seg07
L_mid_hand01 Rope1_Seg09
L_mid_hand02 Rope1_Seg09
L_mid_hand03 Rope1_Seg09
null_rope02_connect R_mid_tent01
Rope2_Seg01 null_rope02_connect
Rope2_Seg02 Rope2_Seg01
Rope2_Seg03 Rope2_Seg02
Rope2_Seg04 Rope2_Seg03
Rope2_Seg05 Rope2_Seg04
Rope2_Seg06 Rope2_Seg05
Rope2_Seg07 Rope2_Seg06
Rope2_Seg09 Rope2_Seg07
R_mid_hand01 Rope2_Seg09
R_mid_hand02 Rope2_Seg09
R_mid_hand03 Rope2_Seg09
spine02 spine01
spine03 spine02
pelvis spine03
null_rope03_connect pelvis
null_rope04_connect pelvis
Rope3_Seg01 null_rope03_connect
Rope3_Seg02 Rope3_Seg01
Rope3_Seg03 Rope3_Seg02
Rope3_Seg04 Rope3_Seg03
Rope3_Seg05 Rope3_Seg04
Rope3_Seg06 Rope3_Seg05
Rope3_Seg07 Rope3_Seg06
Rope3_Seg08 Rope3_Seg07
Rope3_Seg09 Rope3_Seg08
R_rear_hand01 Rope3_Seg09
R_rear_hand02 Rope3_Seg09
R_rear_hand03 Rope3_Seg09
Rope4_Seg01 null_rope04_connect
Rope4_Seg02 Rope4_Seg01
Rope4_Seg03 Rope4_Seg02
Rope4_Seg04 Rope4_Seg03
Rope4_Seg05 Rope4_Seg04
Rope4_Seg06 Rope4_Seg05
Rope4_Seg07 Rope4_Seg06
Rope4_Seg08 Rope4_Seg07
Rope4_Seg09 Rope4_Seg08
L_rear_hand01 Rope4_Seg09
L_rear_hand02 Rope4_Seg09
L_rear_hand03 Rope4_Seg09
[BasePosition]
#SegmentName Tx, Ty, Tz, Rx, Ry, Rz, BoneLength
MASTER 0.000000 0.000000 0.000000 -90.000000 0.000000 0.000000 10.000000 
root 0.000000 0.000000 0.000000 0.000000 0.000000 0.000000 10.000000 
chest 0.000000 0.000000 0.000000 0.000000 0.000000 0.000000 10.000000 
L_mid_tent01 0.000000 0.000000 0.000000 0.000000 0.000000 0.000000 10.000000 
R_mid_tent01 0.000000 0.000000 0.000000 0.000000 0.000000 0.000000 10.000000 
spine01 0.000000 0.000000 0.000000 0.000000 0.000000 0.000000 10.000000 
Bip01_Neck 0.000000 0.000000 0.000000 0.000000 0.000000 0.000000 10.000000 
L_humerus 0.000000 0.000000 0.000000 0.000000 0.000000 0.000000 10.000000 
R_humerus 0.000000 0.000000 0.000000 0.000000 0.000000 0.000000 10.000000 
weapon_bone 0.000000 0.000000 0.000000 0.000000 0.000000 0.000000 10.000000 
Bip01_Head 0.000000 0.000000 0.000000 0.000000 0.000000 0.000000 10.000000 
eye_left_bone 0.000000 0.000000 0.000000 0.000000 0.000000 0.000000 10.000000 
eye_right_bone 0.000000 0.000000 0.000000 0.000000 0.000000 0.000000 10.000000 
L_forearm 0.000000 0.000000 0.000000 0.000000 0.000000 0.000000 10.000000 
L_front_hand 0.000000 0.000000 0.000000 0.000000 0.000000 0.000000 10.000000 
L_weapon_bone 0.000000 0.000000 0.000000 0.000000 0.000000 0.000000 10.000000 
L_front_hand01_01 0.000000 0.000000 0.000000 0.000000 0.000000 0.000000 10.000000 
L_front_hand02_01 0.000000 0.000000 0.000000 0.000000 0.000000 0.000000 10.000000 
L_front_hand03_01 0.000000 0.000000 0.000000 0.000000 0.000000 0.000000 10.000000 
L_front_hand01_02 0.000000 0.000000 0.000000 0.000000 0.000000 0.000000 10.000000 
L_front_hand02_02 0.000000 0.000000 0.000000 0.000000 0.000000 0.000000 10.000000 
L_front_hand03_02 0.000000 0.000000 0.000000 0.000000 0.000000 0.000000 10.000000 
R_forearm 0.000000 0.000000 0.000000 0.000000 0.000000 0.000000 10.000000 
R_front_hand 0.000000 0.000000 0.000000 0.000000 0.000000 0.000000 10.000000 
R_weapon_bone 0.000000 0.000000 0.000000 0.000000 0.000000 0.000000 10.000000 
R_front_hand01_01 0.000000 0.000000 0.000000 0.000000 0.000000 0.000000 10.000000 
R_front_hand02_01 0.000000 0.000000 0.000000 0.000000 0.000000 0.000000 10.000000 
R_front_hand03_01 0.000000 0.000000 0.000000 0.000000 0.000000 0.000000 10.000000 
R_front_hand01_02 0.000000 0.000000 0.000000 0.000000 0.000000 0.000000 10.000000 
R_front_hand02_02 0.000000 0.000000 0.000000 0.000000 0.000000 0.000000 10.000000 
R_front_hand03_02 0.000000 0.000000 0.000000 0.000000 0.000000 0.000000 10.000000 
null_rope01_connect 0.000000 0.000000 0.000000 0.000000 0.000000 0.000000 10.000000 
Rope1_Seg01 0.000000 0.000000 0.000000 0.000000 0.000000 0.000000 10.000000 
Rope1_Seg02 0.000000 0.000000 0.000000 0.000000 0.000000 0.000000 10.000000 
Rope1_Seg03 0.000000 0.000000 0.000000 0.000000 0.000000 0.000000 10.000000 
Rope1_Seg04 0.000000 0.000000 0.000000 0.000000 0.000000 0.000000 10.000000 
Rope1_Seg05 0.000000 0.000000 0.000000 0.000000 0.000000 0.000000 10.000000 
Rope1_Seg06 0.000000 0.000000 0.000000 0.000000 0.000000 0.000000 10.000000 
Rope1_Seg07 0.000000 0.000000 0.000000 0.000000 0.000000 0.000000 10.000000 
Rope1_Seg09 0.000000 0.000000 0.000000 0.000000 0.000000 0.000000 10.000000 
L_mid_hand01 0.000000 0.000000 0.000000 0.000000 0.000000 0.000000 10.000000 
L_mid_hand02 0.000000 0.000000 0.000000 0.000000 0.000000 0.000000 10.000000 
L_mid_hand03 0.000000 0.000000 0.000000 0.000000 0.000000 0.000000 10.000000 
null_rope02_connect 0.000000 0.000000 0.000000 0.000000 0.000000 0.000000 10.000000 
Rope2_Seg01 0.000000 0.000000 0.000000 0.000000 0.000000 0.000000 10.000000 
Rope2_Seg02 0.000000 0.000000 0.000000 0.000000 0.000000 0.000000 10.000000 
Rope2_Seg03 0.000000 0.000000 0.000000 0.000000 0.000000 0.000000 10.000000 
Rope2_Seg04 0.000000 0.000000 0.000000 0.000000 0.000000 0.000000 10.000000 
Rope2_Seg05 0.000000 0.000000 0.000000 0.000000 0.000000 0.000000 10.000000 
Rope2_Seg06 0.000000 0.000000 0.000000 0.000000 0.000000 0.000000 10.000000 
Rope2_Seg07 0.000000 0.000000 0.000000 0.000000 0.000000 0.000000 10.000000 
Rope2_Seg09 0.000000 0.000000 0.000000 0.000000 0.000000 0.000000 10.000000 
R_mid_hand01 0.000000 0.000000 0.000000 0.000000 0.000000 0.000000 10.000000 
R_mid_hand02 0.000000 0.000000 0.000000 0.000000 0.000000 0.000000 10.000000 
R_mid_hand03 0.000000 0.000000 0.000000 0.000000 0.000000 0.000000 10.000000 
spine02 0.000000 0.000000 0.000000 0.000000 0.000000 0.000000 10.000000 
spine03 0.000000 0.000000 0.000000 0.000000 0.000000 0.000000 10.000000 
pelvis 0.000000 0.000000 0.000000 0.000000 0.000000 0.000000 10.000000 
null_rope03_connect 0.000000 0.000000 0.000000 0.000000 0.000000 0.000000 10.000000 
null_rope04_connect 0.000000 0.000000 0.000000 0.000000 0.000000 0.000000 10.000000 
Rope3_Seg01 0.000000 0.000000 0.000000 0.000000 0.000000 0.000000 10.000000 
Rope3_Seg02 0.000000 0.000000 0.000000 0.000000 0.000000 0.000000 10.000000 
Rope3_Seg03 0.000000 0.000000 0.000000 0.000000 0.000000 0.000000 10.000000 
Rope3_Seg04 0.000000 0.000000 0.000000 0.000000 0.000000 0.000000 10.000000 
Rope3_Seg05 0.000000 0.000000 0.000000 0.000000 0.000000 0.000000 10.000000 
Rope3_Seg06 0.000000 0.000000 0.000000 0.000000 0.000000 0.000000 10.000000 
Rope3_Seg07 0.000000 0.000000 0.000000 0.000000 0.000000 0.000000 10.000000 
Rope3_Seg08 0.000000 0.000000 0.000000 0.000000 0.000000 0.000000 10.000000 
Rope3_Seg09 0.000000 0.000000 0.000000 0.000000 0.000000 0.000000 10.000000 
R_rear_hand01 0.000000 0.000000 0.000000 0.000000 0.000000 0.000000 10.000000 
R_rear_hand02 0.000000 0.000000 0.000000 0.000000 0.000000 0.000000 10.000000 
R_rear_hand03 0.000000 0.000000 0.000000 0.000000 0.000000 0.000000 10.000000 
Rope4_Seg01 0.000000 0.000000 0.000000 0.000000 0.000000 0.000000 10.000000 
Rope4_Seg02 0.000000 0.000000 0.000000 0.000000 0.000000 0.000000 10.000000 
Rope4_Seg03 0.000000 0.000000 0.000000 0.000000 0.000000 0.000000 10.000000 
Rope4_Seg04 0.000000 0.000000 0.000000 0.000000 0.000000 0.000000 10.000000 
Rope4_Seg05 0.000000 0.000000 0.000000 0.000000 0.000000 0.000000 10.000000 
Rope4_Seg06 0.000000 0.000000 0.000000 0.000000 0.000000 0.000000 10.000000 
Rope4_Seg07 0.000000 0.000000 0.000000 0.000000 0.000000 0.000000 10.000000 
Rope4_Seg08 0.000000 0.000000 0.000000 0.000000 0.000000 0.000000 10.000000 
Rope4_Seg09 0.000000 0.000000 0.000000 0.000000 0.000000 0.000000 10.000000 
L_rear_hand01 0.000000 0.000000 0.000000 0.000000 0.000000 0.000000 10.000000 
L_rear_hand02 0.000000 0.000000 0.000000 0.000000 0.000000 0.000000 10.000000 
L_rear_hand03 0.000000 0.000000 0.000000 0.000000 0.000000 0.000000 10.000000 
#Beginning of Data. Separated by tabs
#Fr	Tx	Ty	Tz	Rx	Ry	Rz	SF
[MASTER]
9 0.000003 0.000061 1390.625244 0.001660 0.001660 0.001660 1390.625244
10 0.000003 0.000089 2031.250977 0.001660 0.001660 0.001660 2031.250977
[root]
9 -16.502304 0.227972 1451.029785 -86.718681 -23.973566 -91.316895 1451.123535
10 -16.502304 -0.999553 1451.614014 -83.116844 -21.614563 -92.836166 1451.708130
[chest]
9 -84.512650 -34.090519 0.000000 -2.449874 -1.998353 -173.266022 91.129311
10 -84.512650 -34.090519 0.000000 -2.286259 -2.124172 -173.647980 91.129311
[L_mid_tent01]
9 27.299088 22.179079 -249.918701 7.580037 19.363173 83.941261 252.381683
10 27.299088 22.179075 -249.918701 11.244859 17.727684 93.149590 252.381683
[R_mid_tent01]
9 23.228794 24.509907 226.238495 151.733139 -16.285397 94.928009 228.744751
10 23.228794 24.509907 226.238495 149.673706 -13.404193 99.258347 228.744751
[spine01]
9 -0.361383 -0.195265 0.000000 0.001840 0.001457 13.270912 0.410763
10 -0.361383 -0.195265 0.000000 0.001845 0.001451 13.654368 0.410763
[Bip01_Neck]
9 165.484543 71.581718 0.000119 176.643677 -1.657967 43.431915 180.302734
10 165.484543 71.581718 0.000119 176.643677 -1.657967 43.431911 180.302734
[L_humerus]
9 -13.983130 -135.272980 -120.471481 167.485153 48.611084 -89.392105 181.680161
10 -13.983130 -135.272980 -120.471481 168.230301 40.995800 -83.540062 181.680161
[R_humerus]
9 -13.983309 -135.273102 125.287651 -174.737122 -44.782669 -89.494026 184.909012
10 -13.983309 -135.273102 125.287651 -175.575897 -37.418385 -88.284653 184.909012
[weapon_bone]
9 235.964890 -300.705902 0.000000 0.000000 -89.951546 -128.212341 382.234833
10 235.964890 -300.705902 0.000000 0.000000 -89.951546 -128.212341 382.234833
[Bip01_Head]
9 213.441879 185.722153 11.691937 4.962490 2.797846 -43.898743 283.172852
10 213.441589 185.723022 11.681311 4.962490 2.797846 -43.898743 283.172760
[eye_left_bone]
9 -24.626970 125.451866 -64.772606 0.000000 -90.000000 -99.840431 143.318359
10 -24.626970 125.451866 -64.772606 0.000000 -90.000000 -99.840431 143.318359
[eye_right_bone]
9 -24.626970 125.451866 64.327362 0.000000 -89.965736 80.156380 143.117676
10 -24.626970 125.451866 64.327362 0.000000 -89.965736 80.156380 143.117676
[L_forearm]
9 322.776093 0.000000 -0.000119 0.000151 -0.002342 -97.377419 322.776093
10 322.776093 0.000000 -0.000119 0.000119 -0.002344 -95.807457 322.776093
[L_front_hand]
9 241.149185 -0.042021 -3.300071 -178.667953 -1.835447 -27.422350 241.171753
10 241.149185 -0.042021 -3.300071 -178.667953 -1.835447 -27.422350 241.171753
[L_weapon_bone]
9 156.183838 0.000000 0.000000 0.000014 0.000007 0.000001 156.183838
10 156.183838 0.000000 0.000000 0.000014 0.000007 0.000001 156.183838
[L_front_hand01_01]
9 86.095154 20.947098 -0.655860 -0.366594 -0.477154 75.385574 88.609184
10 86.095154 20.947098 -0.655860 -0.366594 -0.477154 75.385574 88.609184
[L_front_hand02_01]
9 86.935165 -11.437475 24.513514 154.399796 -59.883835 -61.369587 91.046425
10 86.935165 -11.437475 24.513514 154.399796 -59.883835 -61.369587 91.046425
[L_front_hand03_01]
9 86.637497 -14.123976 -20.424902 -153.913879 58.118130 -62.702892 90.126129
10 86.637497 -14.123976 -20.424902 -153.913849 58.118122 -62.702866 90.126129
[L_front_hand01_02]
9 71.020905 -0.000179 0.000030 0.000334 -0.002323 -106.379684 71.020905
10 71.020905 -0.000179 0.000030 0.000334 -0.002323 -106.379684 71.020905
[L_front_hand02_02]
9 71.020927 -0.000119 0.000060 0.000334 -0.002323 -106.379684 71.020927
10 71.020927 -0.000119 0.000060 0.000334 -0.002323 -106.379684 71.020927
[L_front_hand03_02]
9 71.020905 -0.000060 0.000060 0.000334 -0.002323 -106.379684 71.020905
10 71.020905 -0.000060 0.000060 0.000334 -0.002323 -106.379684 71.020905
[R_forearm]
9 322.776428 -0.000060 0.000030 0.212622 0.019149 -95.920502 322.776428
10 322.776428 -0.000060 0.000030 0.209504 0.012586 -94.339050 322.776428
[R_front_hand]
9 238.847015 -0.006795 2.210259 -2.635298 -10.645461 -26.312506 238.857239
10 238.847015 -0.006795 2.210259 -2.635298 -10.645461 -26.312506 238.857239
[R_weapon_bone]
9 155.664093 0.002503 -0.000030 0.003487 0.001180 -90.988930 155.664078
10 155.664093 0.002503 -0.000030 0.003487 0.001180 -90.988930 155.664078
[R_front_hand01_01]
9 87.624611 14.231146 22.918642 -154.633499 -59.950619 61.746044 91.683487
10 87.624611 14.231146 22.918642 -154.633484 -59.950607 61.746033 91.683487
[R_front_hand02_01]
9 89.356956 14.367283 -19.491137 154.602661 58.302849 63.744389 92.579636
10 89.356956 14.367283 -19.491137 154.602661 58.302849 63.744389 92.579636
[R_front_hand03_01]
9 87.286232 -22.307278 -0.143439 0.162155 -0.423168 -75.767921 90.091743
10 87.286232 -22.307278 -0.143439 0.162155 -0.423168 -75.767921 90.091743
[R_front_hand01_02]
9 71.020905 0.000060 0.000119 0.002323 -0.000334 106.381714 71.020905
10 71.020905 0.000060 0.000119 0.002323 -0.000334 106.381714 71.020905
[R_front_hand02_02]
9 71.020844 -0.000030 -0.000119 0.002323 -0.000334 106.381714 71.020836
10 71.020844 -0.000030 -0.000119 0.002323 -0.000334 106.381714 71.020836
[R_front_hand03_02]
9 71.020905 0.000000 0.000030 0.002323 -0.000334 106.381714 71.020905
10 71.020905 0.000000 0.000030 0.002323 -0.000334 106.381714 71.020905
[null_rope01_connect]
9 328.732483 0.000000 -0.000238 -121.257362 -70.981117 152.190964 328.732483
10 328.732483 0.000000 -0.000238 -112.029167 -72.104858 131.456345 328.732483
[Rope1_Seg01]
9 0.000031 -0.000045 0.000111 17.859310 72.908569 -153.275543 0.000124
10 0.000030 -0.000046 0.000125 31.266640 80.197388 -138.127426 0.000136
[Rope1_Seg02]
9 139.999863 -0.000179 0.000000 -0.232496 -0.082689 2.306654 139.999863
10 139.999863 -0.000179 0.000000 -0.179138 1.587907 -0.910927 139.999863
[Rope1_Seg03]
9 139.999924 0.000060 -0.000060 -0.371467 -0.144351 5.350355 139.999924
10 139.999924 0.000060 -0.000060 -0.560674 2.090640 0.357478 139.999924
[Rope1_Seg04]
9 139.999924 -0.000060 -0.000119 0.051260 -0.017680 -0.947924 139.999924
10 139.999924 -0.000060 -0.000119 -0.603769 2.252931 0.153029 139.999924
[Rope1_Seg05]
9 139.999832 0.000119 -0.000060 1.004231 0.226307 -10.307577 139.999832
10 139.999832 0.000119 -0.000060 2.883142 -1.633801 -8.324258 139.999832
[Rope1_Seg06]
9 139.999954 0.000119 -0.000060 0.812815 0.015898 -4.797062 139.999954
10 139.999954 0.000119 -0.000060 2.199469 -1.472463 -4.970197 139.999954
[Rope1_Seg07]
9 139.999985 0.000060 0.000000 0.571277 -0.029337 -2.713955 139.999985
10 139.999985 0.000060 0.000000 1.057748 -0.620439 -2.274413 139.999985
[Rope1_Seg09]
9 121.602913 0.000119 -0.000089 -89.793175 -1.359789 0.847147 121.602913
10 121.602913 0.000119 -0.000089 -89.793175 -1.359789 0.847147 121.602913
[L_mid_hand01]
9 103.859421 1.038730 8.195221 130.544388 -67.584549 -38.866955 104.187431
10 103.859421 1.038730 8.195221 130.544373 -67.584534 -38.866943 104.187431
[L_mid_hand02]
9 105.572853 -4.139662 -10.864139 -168.923172 43.409309 -73.498886 106.211075
10 105.572853 -4.139662 -10.864139 -168.923172 43.409309 -73.498886 106.211075
[L_mid_hand03]
9 104.641464 17.579376 -3.913581 -6.012627 17.808174 74.893669 106.179977
10 104.641464 17.579376 -3.913581 -6.012627 17.808174 74.893669 106.179977
[null_rope02_connect]
9 328.732849 0.000179 -0.000119 -103.075500 57.136921 52.857948 328.732849
10 328.732849 0.000179 -0.000119 -108.603760 55.847130 53.350372 328.732849
[Rope2_Seg01]
9 0.000035 0.000110 0.000000 -17.294176 84.062187 -85.287064 0.000115
10 0.000029 0.000109 0.000000 40.523613 87.399323 -26.049568 0.000113
[Rope2_Seg02]
9 139.999741 -0.000060 -0.000119 -0.677693 0.784198 2.658134 139.999756
10 139.999741 -0.000060 -0.000119 -0.362746 2.060353 0.366127 139.999756
[Rope2_Seg03]
9 140.000107 0.000030 0.000000 -1.074291 0.660960 4.843943 140.000107
10 140.000107 0.000030 0.000000 -0.587817 2.962379 0.545517 140.000107
[Rope2_Seg04]
9 139.999802 0.000000 -0.000060 -1.763267 2.256247 9.411931 139.999802
10 139.999802 0.000000 -0.000060 -1.077663 5.496665 0.311397 139.999802
[Rope2_Seg05]
9 139.999985 -0.000060 0.000119 -0.188185 7.730830 -3.982323 139.999985
10 139.999985 -0.000060 0.000119 -3.015448 7.163114 3.204013 139.999985
[Rope2_Seg06]
9 139.999893 -0.000030 -0.000119 -0.157509 2.592239 -0.912132 139.999893
10 139.999893 -0.000030 -0.000119 -1.382483 1.212564 1.960712 139.999893
[Rope2_Seg07]
9 139.999893 0.000060 -0.000060 -0.156562 1.450264 -0.386106 139.999893
10 139.999893 0.000060 -0.000060 -0.796313 1.061347 0.889525 139.999893
[Rope2_Seg09]
9 121.338966 0.000089 -0.000060 33.793236 -1.359788 -0.847141 121.338966
10 121.338966 0.000089 -0.000060 33.793236 -1.359788 -0.847141 121.338966
[R_mid_hand01]
9 104.680779 11.144459 -10.335981 -16.212063 45.237247 70.462852 105.778534
10 104.680779 11.144459 -10.335981 -16.212063 45.237247 70.462852 105.778534
[R_mid_hand02]
9 104.070427 2.443552 8.231699 49.067394 -67.749794 39.286465 104.424065
10 104.070427 2.443552 8.231699 49.067368 -67.749771 39.286453 104.424065
[R_mid_hand03]
9 106.028137 -11.221827 -5.996406 -177.101105 15.551026 -76.585571 106.788818
10 106.028137 -11.221827 -5.996406 -177.101105 15.551026 -76.585571 106.788818
[spine02]
9 129.756927 0.001550 0.000119 -0.867545 -3.964332 4.506546 129.756927
10 129.756927 0.001550 0.000119 -1.023899 -3.926965 6.770993 129.756927
[spine03]
9 78.614059 0.081742 -4.899004 1.140765 4.120971 5.627525 78.766594
10 78.614059 0.081742 -4.899003 1.040681 4.146420 4.212376 78.766594
[pelvis]
9 169.435242 0.051022 0.000000 0.009834 -0.191000 -7.863252 169.435257
10 169.435242 0.051022 0.000000 0.019518 -0.190233 -10.721436 169.435257
[null_rope03_connect]
9 -1.257226 -2.466202 137.391083 -1.002037 -87.117439 99.550003 137.418976
10 -1.257226 -2.466202 137.391083 -3.596359 -83.877686 101.529503 137.418976
[null_rope04_connect]
9 -1.259640 -2.480268 -137.844437 -1.002037 -87.117439 99.550003 137.872513
10 -1.259640 -2.480268 -137.844437 -3.596359 -83.877686 101.529503 137.872513
[Rope3_Seg01]
9 0.000000 0.000000 0.000000 36.370731 46.466946 -57.370544 0.000000
10 0.000000 0.000000 0.000000 42.080360 43.860851 -47.860027 0.000000
[Rope3_Seg02]
9 139.999924 -0.000119 0.000060 6.806686 14.120761 -10.199068 139.999924
10 139.999924 -0.000119 0.000060 10.124234 15.727590 -13.185055 139.999924
[Rope3_Seg03]
9 139.999924 -0.000119 0.000119 5.197192 11.287441 -9.082153 139.999924
10 139.999924 -0.000119 0.000119 6.613423 11.414857 -12.980135 139.999924
[Rope3_Seg04]
9 139.999924 0.000119 0.000000 3.361059 7.507140 -7.389623 139.999924
10 139.999924 0.000119 0.000000 3.421255 6.658207 -9.754008 139.999924
[Rope3_Seg05]
9 139.999924 -0.000238 0.000060 1.872107 1.891614 -9.337618 139.999924
10 139.999924 -0.000238 0.000060 1.609352 1.595057 -8.874007 139.999924
[Rope3_Seg06]
9 139.999893 -0.000119 -0.000060 1.106089 -0.388816 -8.338402 139.999893
10 139.999893 -0.000119 -0.000060 0.963743 -0.397625 -7.316672 139.999893
[Rope3_Seg07]
9 139.999771 0.000060 -0.000119 0.670029 0.447130 -5.061877 139.999771
10 139.999771 0.000060 -0.000119 0.648374 0.280955 -4.741105 139.999771
[Rope3_Seg08]
9 139.999985 -0.000060 0.000000 0.533072 0.283642 -3.182492 139.999985
10 139.999985 -0.000060 0.000000 0.530712 0.203401 -2.965176 139.999985
[Rope3_Seg09]
9 90.185997 -0.000179 -0.000060 89.793228 -1.359877 -0.847183 90.185997
10 90.185997 -0.000179 -0.000060 89.793228 -1.359877 -0.847183 90.185997
[R_rear_hand01]
9 103.366196 -6.073594 -10.757982 -177.714203 24.565960 -73.910950 104.101845
10 103.366196 -6.073594 -10.757982 -177.714203 24.565960 -73.910950 104.101845
[R_rear_hand02]
9 100.509819 12.039542 -7.992327 -12.874829 36.868488 72.167213 101.543350
10 100.509819 12.039542 -7.992327 -12.874829 36.868488 72.167213 101.543350
[R_rear_hand03]
9 101.539970 5.215704 5.435467 71.484581 -71.816628 21.513813 101.819031
10 101.539970 5.215704 5.435467 71.484581 -71.816628 21.513813 101.819031
[Rope4_Seg01]
9 0.000010 0.000031 -0.000125 -113.290749 43.731117 -117.699432 0.000129
10 0.000010 0.000030 -0.000121 -116.295036 48.781551 -118.948006 0.000125
[Rope4_Seg02]
9 139.999985 0.000060 0.000119 -0.142245 -1.026998 0.052397 139.999985
10 139.999985 0.000060 0.000119 -0.461396 -1.890705 0.484130 139.999985
[Rope4_Seg03]
9 139.999924 0.000000 -0.000238 -0.121865 -1.200181 -0.011896 139.999924
10 139.999924 0.000000 -0.000238 -0.432085 -2.123444 0.449912 139.999924
[Rope4_Seg04]
9 139.999985 0.000000 0.000119 0.875092 -2.568667 -3.634861 139.999985
10 139.999985 0.000000 0.000119 0.492129 -3.731670 -2.899569 139.999985
[Rope4_Seg05]
9 139.999802 -0.000060 -0.000119 -1.314450 -0.220266 4.818083 139.999802
10 139.999802 -0.000060 -0.000119 -1.283712 -1.318087 4.588044 139.999802
[Rope4_Seg06]
9 139.999924 0.000000 0.000060 -2.422470 1.819046 8.515318 139.999924
10 139.999924 0.000000 0.000060 -2.049710 1.672346 8.265213 139.999924
[Rope4_Seg07]
9 139.999802 0.000000 0.000000 -1.129342 0.410604 3.336607 139.999802
10 139.999802 0.000000 0.000000 -1.046287 0.360033 3.480835 139.999802
[Rope4_Seg08]
9 139.999924 0.000000 0.000119 -2.187351 0.149516 1.784595 139.999924
10 139.999924 0.000000 0.000119 -2.124280 0.069594 1.796033 139.999924
[Rope4_Seg09]
9 90.185791 0.000060 0.000060 -135.617828 2.228885 0.850567 90.185791
10 90.185791 0.000060 0.000060 -135.617828 2.228885 0.850567 90.185791
[L_rear_hand01]
9 101.696655 -8.392275 -7.654577 -12.874829 -36.868488 107.832764 102.329041
10 101.696655 -8.392275 -7.654577 -12.874829 -36.868488 107.832764 102.329041
[L_rear_hand02]
9 102.726799 -1.568258 5.773216 71.484581 71.816628 158.486160 102.900848
10 102.726799 -1.568258 5.773216 71.484581 71.816628 158.486160 102.900848
[L_rear_hand03]
9 104.552910 9.721220 -10.420293 -177.714203 -24.565960 -106.089035 105.519653
10 104.552910 9.721220 -10.420293 -177.714203 -24.565960 -106.089035 105.519653
